<svg width="51" height="45" viewBox="0 0 51 45" fill="none" xmlns="http://www.w3.org/2000/svg">
<path d="M5.50001 23.2735H15.5L19.25 15.7734L24.25 28.2735L28 23.2735H33M25.5 9.348C26.711 6.93495 29.1708 5.08762 31.0468 4.17222C35.7735 1.86582 40.458 3.0541 44.3388 6.93495C49.2203 11.8165 49.2203 19.731 44.3388 24.6125L27.2678 41.6838C26.2915 42.66 24.7085 42.66 23.7323 41.6838L6.66118 24.6125C1.77961 19.731 1.77961 11.8165 6.66118 6.93495C10.542 3.0541 15.2264 1.86582 19.9531 4.17222C21.8293 5.08762 24.289 6.93495 25.5 9.348Z" stroke="white" stroke-width="5" stroke-linecap="round" stroke-linejoin="round"/>
</svg>
