<svg width="200" height="60" viewBox="0 0 200 60" fill="none" xmlns="http://www.w3.org/2000/svg">
<path d="M62.9991 34.0171H68.2301C68.4167 34.0245 68.6029 33.9951 68.7781 33.9306C68.8957 33.8853 69.0012 33.8135 69.0861 33.7208C69.1532 33.6446 69.1993 33.5525 69.2201 33.4533C69.2383 33.3683 69.248 33.2817 69.2491 33.1948C69.2491 32.7739 68.8824 32.3788 68.1491 32.0095L65.0141 30.4415C64.6398 30.2611 64.2908 30.0328 63.9761 29.7624C63.7025 29.5247 63.4745 29.2397 63.3031 28.9212C63.1311 28.5941 63.011 28.2426 62.9471 27.8791C62.873 27.4562 62.8375 27.0276 62.8411 26.5984C62.8366 26.1411 62.8883 25.685 62.9951 25.2401C63.0852 24.8575 63.2632 24.5008 63.5151 24.1981C63.7667 23.905 64.0872 23.6782 64.4481 23.5378C64.9003 23.3719 65.3803 23.294 65.8621 23.3082H72.1501V25.9859H67.2061C66.9661 25.983 66.728 26.0283 66.5061 26.1191C66.3956 26.1754 66.3057 26.2646 66.2488 26.3742C66.192 26.4839 66.1711 26.6086 66.1891 26.7306C66.1917 26.8564 66.2196 26.9805 66.2711 27.0954C66.3226 27.2103 66.3967 27.3138 66.4891 27.3998C66.7406 27.6428 67.0296 27.8442 67.3451 27.9964L69.9451 29.3736C70.3578 29.5876 70.7584 29.824 71.1451 30.0815C71.4643 30.2925 71.7495 30.5503 71.9911 30.8462C72.2227 31.1412 72.3927 31.4793 72.4911 31.8405C72.6089 32.295 72.664 32.7633 72.6551 33.2326C72.6604 33.7176 72.6121 34.2018 72.5111 34.6763C72.4302 35.0722 72.263 35.4456 72.0211 35.7701C71.7824 36.0753 71.4672 36.3126 71.1071 36.4582C70.65 36.6314 70.1629 36.7125 69.6741 36.6968H63.0061L62.9991 34.0171Z" fill="#121A50"/>
<path d="M76.98 36.6898V25.9869H73.134V23.3091H84.172V25.9869H80.326V36.6948L76.98 36.6898Z" fill="#121A50"/>
<path d="M90.383 34.1712C90.702 34.1834 91.02 34.1282 91.316 34.0092C91.549 33.9044 91.7438 33.7308 91.874 33.512C92.0202 33.2527 92.1117 32.9664 92.143 32.6708C92.1914 32.2749 92.2141 31.8764 92.211 31.4776V23.3121H95.557V31.5919C95.575 32.4382 95.4843 33.2832 95.287 34.1066C95.1426 34.7121 94.8409 35.2692 94.412 35.7224C93.9686 36.1522 93.4152 36.4531 92.812 36.5924C91.2085 36.9367 89.5495 36.9367 87.946 36.5924C87.3428 36.4531 86.7894 36.1522 86.346 35.7224C85.9178 35.2702 85.6192 34.7123 85.481 34.1066C85.2906 33.2822 85.2033 32.4376 85.221 31.5919V23.3121H88.567V31.4776C88.5636 31.8764 88.5864 32.2749 88.635 32.6708C88.6661 32.9653 88.7544 33.251 88.895 33.512C89.0193 33.7318 89.2114 33.9061 89.443 34.0092C89.7411 34.1292 90.0616 34.1844 90.383 34.1712Z" fill="#121A50"/>
<path d="M99.7091 36.6899C99.17 36.7191 98.6392 36.5487 98.2191 36.2116C98.0195 36.0049 97.8673 35.7578 97.7727 35.4872C97.6781 35.2165 97.6434 34.9287 97.6711 34.6435V25.3744C97.6441 25.0877 97.679 24.7986 97.7735 24.5265C97.868 24.2543 98.02 24.0054 98.2191 23.7964C98.6364 23.4532 99.1684 23.2789 99.7091 23.3082H103.38C104.31 23.2696 105.237 23.4395 106.092 23.8053C106.74 24.1089 107.287 24.5897 107.669 25.1914C108.059 25.8377 108.311 26.557 108.409 27.3044C108.653 29.0936 108.653 30.9074 108.409 32.6966C108.312 33.4415 108.067 34.1597 107.688 34.8096C107.323 35.4083 106.792 35.8898 106.159 36.1967C105.341 36.5604 104.449 36.7306 103.553 36.6938L99.7091 36.6899ZM101.978 25.9819C101.845 25.9456 101.704 25.9451 101.571 25.9802C101.437 26.0154 101.315 26.0852 101.218 26.1823C101.12 26.2795 101.05 26.4006 101.014 26.5334C100.979 26.6662 100.98 26.806 101.016 26.9385V33.0576C100.98 33.19 100.979 33.3297 101.015 33.4623C101.05 33.595 101.121 33.7159 101.218 33.8129C101.316 33.91 101.438 33.9796 101.571 34.0147C101.705 34.0499 101.845 34.0493 101.978 34.0131H102.69C103.111 34.028 103.531 33.9531 103.921 33.7934C104.243 33.646 104.506 33.3971 104.671 33.0854C104.87 32.6941 104.994 32.2692 105.036 31.8326C105.107 31.2233 105.14 30.6103 105.136 29.997C105.142 29.3898 105.106 28.7829 105.03 28.1804C104.983 27.7428 104.852 27.318 104.646 26.9285C104.476 26.6187 104.214 26.3684 103.896 26.2116C103.519 26.046 103.108 25.9674 102.696 25.9819H101.978Z" fill="#121A50"/>
<path d="M117.324 23.3091H120.924L116.482 32.7941V36.6898H113.136V32.7891L108.736 23.3042H112.336L114.836 29.6142L117.324 23.3091Z" fill="#121A50"/>
<path d="M131.227 36.6899C130.283 36.7216 129.342 36.5689 128.457 36.2404C127.781 35.9741 127.197 35.5194 126.775 34.9309C126.348 34.2987 126.065 33.5807 125.948 32.8279C125.653 30.959 125.653 29.0559 125.948 27.1871C126.065 26.4342 126.348 25.7162 126.775 25.084C127.199 24.4945 127.782 24.0369 128.457 23.7646C129.34 23.4294 130.282 23.2732 131.227 23.3052H134.67V25.9829H132.747C132.153 25.9701 131.559 26.0278 130.978 26.1549C130.56 26.2447 130.18 26.4619 129.892 26.7764C129.604 27.1294 129.415 27.5516 129.344 28.0004C129.139 29.3247 129.139 30.6723 129.344 31.9966C129.415 32.4454 129.604 32.8676 129.892 33.2207C130.18 33.5351 130.56 33.7524 130.978 33.8421C131.559 33.9692 132.153 34.0269 132.747 34.0141H134.862V36.6919L131.227 36.6899Z" fill="#121A50"/>
<path d="M139.341 24.8205C139.435 24.519 139.578 24.2348 139.764 23.9793C139.924 23.7689 140.129 23.5961 140.364 23.4732C140.608 23.3481 140.871 23.2641 141.143 23.2246C141.458 23.1782 141.776 23.1559 142.095 23.158C142.407 23.1564 142.719 23.1787 143.028 23.2246C143.3 23.264 143.563 23.348 143.807 23.4732C144.042 23.5961 144.247 23.7689 144.407 23.9793C144.593 24.2348 144.736 24.519 144.83 24.8205L148.619 36.6959H144.976L144.149 33.7506H140.015L139.188 36.6959H135.572L139.341 24.8205ZM140.514 31.2648H143.649L142.361 26.7903C142.331 26.6852 142.292 26.5828 142.245 26.484C142.234 26.4519 142.213 26.4238 142.186 26.4032C142.158 26.3827 142.125 26.3707 142.091 26.3687C141.991 26.3687 141.891 26.5089 141.802 26.7893L140.514 31.2648Z" fill="#121A50"/>
<path d="M160.779 34.7062C160.778 34.966 160.736 35.2241 160.654 35.4708C160.569 35.7278 160.428 35.9628 160.241 36.1589C160.027 36.3774 159.768 36.5471 159.481 36.6561C159.109 36.7932 158.714 36.858 158.317 36.847C158.01 36.847 157.699 36.8344 157.384 36.8092C157.077 36.7842 156.775 36.7201 156.484 36.6183C156.194 36.5151 155.929 36.3521 155.706 36.14C155.457 35.8925 155.277 35.5838 155.186 35.2451L152.84 27.7688C152.773 27.552 152.677 27.4436 152.552 27.4436C152.494 27.4501 152.438 27.4698 152.388 27.5013C152.317 27.5397 152.282 27.6481 152.282 27.8264V36.6998H149.482V25.265C149.472 24.9297 149.538 24.5965 149.674 24.2896C149.795 24.0306 149.981 23.8068 150.213 23.6393C150.457 23.4679 150.731 23.3447 151.021 23.2764C151.349 23.1975 151.684 23.1591 152.021 23.162C152.322 23.1629 152.622 23.1789 152.921 23.2097C153.228 23.2388 153.531 23.3056 153.821 23.4086C154.102 23.5106 154.361 23.6667 154.581 23.868C154.817 24.0922 154.987 24.3767 155.071 24.6903L157.456 32.2472C157.523 32.464 157.626 32.5724 157.764 32.5724C157.805 32.5784 157.846 32.5689 157.88 32.5458C157.914 32.5228 157.937 32.4878 157.946 32.4481C157.963 32.383 157.973 32.3163 157.975 32.2492V23.3102H160.779V34.7062Z" fill="#121A50"/>
<path d="M165.417 24.8205C165.511 24.519 165.654 24.2348 165.84 23.9793C166 23.7689 166.205 23.5961 166.44 23.4732C166.684 23.3481 166.947 23.2641 167.219 23.2246C167.534 23.1782 167.852 23.1559 168.171 23.158C168.483 23.1564 168.795 23.1787 169.104 23.2246C169.376 23.2641 169.639 23.3481 169.883 23.4732C170.118 23.5963 170.323 23.7691 170.483 23.9793C170.669 24.2348 170.812 24.519 170.906 24.8205L174.694 36.6959H171.06L170.233 33.7506H166.099L165.272 36.6959H161.656L165.417 24.8205ZM166.59 31.2648H169.725L168.437 26.7903C168.407 26.6852 168.368 26.5828 168.321 26.484C168.31 26.4519 168.289 26.4238 168.262 26.4032C168.234 26.3827 168.201 26.3707 168.167 26.3687C168.067 26.3687 167.967 26.5089 167.878 26.7893L166.59 31.2648Z" fill="#121A50"/>
<path d="M177.589 36.6899C177.05 36.7191 176.519 36.5487 176.099 36.2116C175.9 36.0049 175.747 35.7578 175.653 35.4872C175.558 35.2165 175.524 34.9287 175.551 34.6435V25.3744C175.524 25.0877 175.559 24.7986 175.654 24.5265C175.748 24.2543 175.9 24.0054 176.099 23.7964C176.517 23.4532 177.048 23.2789 177.589 23.3082H181.262C182.192 23.2693 183.119 23.4393 183.974 23.8053C184.622 24.1086 185.169 24.5895 185.551 25.1914C185.942 25.8375 186.194 26.5569 186.291 27.3044C186.535 29.0936 186.535 30.9074 186.291 32.6966C186.194 33.4415 185.949 34.1597 185.57 34.8096C185.205 35.4083 184.674 35.8898 184.041 36.1967C183.223 36.5604 182.331 36.7306 181.435 36.6938L177.589 36.6899ZM179.858 25.9819C179.725 25.9456 179.584 25.9451 179.451 25.9802C179.317 26.0154 179.195 26.0852 179.098 26.1823C179 26.2795 178.93 26.4006 178.895 26.5334C178.859 26.6662 178.86 26.806 178.896 26.9385V33.0576C178.86 33.19 178.86 33.3297 178.895 33.4623C178.931 33.595 179.001 33.7159 179.098 33.8129C179.196 33.91 179.318 33.9796 179.451 34.0147C179.585 34.0499 179.725 34.0493 179.858 34.0131H180.57C180.992 34.0281 181.411 33.9531 181.801 33.7934C182.123 33.6458 182.386 33.397 182.551 33.0854C182.75 32.6941 182.874 32.2692 182.916 31.8326C182.987 31.2233 183.02 30.6103 183.016 29.997C183.024 29.3899 182.99 28.783 182.916 28.1804C182.868 27.7428 182.737 27.3181 182.531 26.9285C182.361 26.6187 182.099 26.3684 181.781 26.2116C181.404 26.0459 180.994 25.9674 180.581 25.9819H179.858Z" fill="#121A50"/>
<path d="M190.723 24.8205C190.817 24.519 190.96 24.2349 191.146 23.9793C191.306 23.7687 191.511 23.5959 191.746 23.4732C191.99 23.348 192.253 23.264 192.525 23.2246C192.84 23.1782 193.159 23.156 193.477 23.158C193.789 23.1564 194.101 23.1787 194.41 23.2246C194.682 23.2641 194.945 23.3481 195.189 23.4732C195.424 23.5963 195.629 23.769 195.789 23.9793C195.975 24.2348 196.118 24.519 196.212 24.8205L200 36.6959H196.365L195.537 33.7506H191.397L190.57 36.6959H186.954L190.723 24.8205ZM191.896 31.2648H195.031L193.743 26.7903C193.713 26.6853 193.674 26.5828 193.627 26.484C193.616 26.4519 193.595 26.4238 193.568 26.4032C193.54 26.3827 193.507 26.3707 193.473 26.3687C193.37 26.3687 193.274 26.5089 193.184 26.7893L191.896 31.2648Z" fill="#121A50"/>
<path d="M62.968 50.9874H66.019C66.1339 50.9882 66.2482 50.9698 66.357 50.9327C66.4691 50.8932 66.5686 50.8246 66.645 50.7339C66.7379 50.616 66.8059 50.4807 66.845 50.3361C66.9027 50.1202 66.929 49.8972 66.923 49.6739C66.9242 49.5584 66.9094 49.4433 66.879 49.3318C66.8473 49.2252 66.7946 49.1258 66.724 49.0395C66.6355 48.9327 66.5349 48.8366 66.424 48.7531C66.266 48.6347 66.101 48.5258 65.93 48.427L64.166 47.368C63.9733 47.258 63.7956 47.1459 63.633 47.0319C63.4776 46.9247 63.3376 46.7969 63.217 46.6521C63.1009 46.5098 63.009 46.3496 62.945 46.1778C62.8741 45.976 62.8403 45.7631 62.845 45.5494C62.8156 45.084 62.9642 44.6248 63.261 44.2637C63.4385 44.0977 63.6496 43.9711 63.88 43.8922C64.1105 43.8134 64.3552 43.7841 64.598 43.8063H67.205V44.3363H64.598C64.4432 44.3201 64.2868 44.3363 64.1387 44.3837C63.9906 44.4311 63.8541 44.5088 63.738 44.6117C63.5447 44.8846 63.4561 45.2172 63.488 45.5494C63.4868 45.6623 63.4979 45.775 63.521 45.8855C63.5441 45.9874 63.5855 46.0844 63.643 46.1718C63.7113 46.2743 63.7934 46.367 63.887 46.4473C64.0162 46.5584 64.1536 46.6598 64.298 46.7505L65.985 47.8095C66.192 47.9418 66.391 48.0651 66.585 48.1794C66.7648 48.286 66.9325 48.4116 67.085 48.5543C67.2292 48.6903 67.3477 48.8509 67.435 49.0285C67.5282 49.2308 67.5737 49.4515 67.568 49.6739C67.5683 49.9055 67.5442 50.1364 67.496 50.363C67.4527 50.577 67.3659 50.78 67.241 50.9596C67.1163 51.1346 66.9505 51.2766 66.758 51.3732C66.5263 51.4831 66.2715 51.5359 66.015 51.5273H62.968V50.9874Z" fill="#1A1818" stroke="#030504" stroke-width="0.198" stroke-miterlimit="10"/>
<path d="M69.0579 44.6545V43.7944H69.6789V44.6545H69.0579ZM69.0799 45.6697H69.6569V51.5164H69.0799V45.6697Z" fill="#1A1818" stroke="#030504" stroke-width="0.198" stroke-miterlimit="10"/>
<path d="M71.3209 46.5974C71.3097 46.3617 71.3678 46.1278 71.4879 45.9242C71.5628 45.8319 71.6602 45.7602 71.7708 45.7158C71.8814 45.6714 72.0016 45.6559 72.1199 45.6707H76.5689C76.8277 45.6633 77.0855 45.7045 77.3289 45.792C77.5191 45.8637 77.6872 45.9833 77.8169 46.139C77.9459 46.3044 78.0352 46.4969 78.0779 46.7018C78.1327 46.9536 78.1588 47.2108 78.1559 47.4684V51.5174H77.5789V47.4684C77.5796 47.3021 77.5682 47.1359 77.5449 46.9712C77.5265 46.8276 77.4796 46.689 77.4069 46.5636C77.3358 46.4446 77.2316 46.3487 77.1069 46.2872C76.9392 46.214 76.7569 46.18 76.5739 46.1877H75.0319V51.5164H74.4549V46.1887H72.2549C72.1632 46.1835 72.0721 46.2064 71.9939 46.2544C71.9309 46.2981 71.8999 46.4164 71.8999 46.6073V51.5164H71.3229L71.3209 46.5974Z" fill="#1A1818" stroke="#030504" stroke-width="0.198" stroke-miterlimit="10"/>
<path d="M80.374 53.3927H79.7971V46.5089C79.7929 46.369 79.8195 46.2298 79.8751 46.1012C79.9189 45.9995 79.9876 45.9102 80.0751 45.8417C80.1629 45.7781 80.263 45.7331 80.3691 45.7095C80.4855 45.6831 80.6046 45.67 80.7241 45.6707H81.667C82.0609 45.6565 82.4535 45.7221 82.8211 45.8636C83.1035 45.981 83.3464 46.1763 83.5211 46.4264C83.7022 46.7014 83.8212 47.0121 83.87 47.3372C83.9369 47.7494 83.9684 48.1665 83.9641 48.5841C83.9682 49.0033 83.9368 49.422 83.87 49.8359C83.8213 50.1645 83.7023 50.4788 83.5211 50.7577C83.3478 51.0102 83.1047 51.2074 82.8211 51.3254C82.4536 51.467 82.0609 51.5327 81.667 51.5183H80.3671L80.374 53.3927ZM80.374 50.9993H81.6741C81.9889 51.0133 82.3025 50.9527 82.5891 50.8223C82.8073 50.7118 82.9871 50.5386 83.1051 50.3252C83.2301 50.0888 83.3056 49.8297 83.3271 49.5635C83.3564 49.2698 83.3711 48.9427 83.3711 48.5821C83.3711 48.2215 83.3564 47.8944 83.3271 47.6007C83.3063 47.3363 83.2307 47.079 83.1051 46.845C82.9865 46.635 82.8066 46.4657 82.5891 46.3598C82.3014 46.2333 81.9882 46.1747 81.6741 46.1887H80.7271C80.6325 46.1817 80.5383 46.2069 80.46 46.2603C80.4007 46.308 80.3714 46.4164 80.372 46.5855L80.374 50.9993Z" fill="#1A1818" stroke="#030504" stroke-width="0.198" stroke-miterlimit="10"/>
<path d="M85.408 43.7944H85.985V51.5164H85.408V43.7944Z" fill="#1A1818" stroke="#030504" stroke-width="0.198" stroke-miterlimit="10"/>
<path d="M87.6289 44.6545V43.7944H88.2509V44.6545H87.6289ZM87.6509 45.6697H88.2279V51.5164H87.6509V45.6697Z" fill="#1A1818" stroke="#030504" stroke-width="0.198" stroke-miterlimit="10"/>
<path d="M89.947 51.5174V46.1887H89.293V45.6707H89.947C89.8938 45.1349 90.0464 44.5989 90.374 44.1703C90.5491 44.0127 90.7547 43.8923 90.9782 43.8166C91.2018 43.7408 91.4385 43.7113 91.674 43.7297V44.2587C91.4959 44.2548 91.3183 44.2772 91.147 44.3253C91.0091 44.3653 90.8859 44.444 90.792 44.552C90.6904 44.6768 90.6217 44.8248 90.592 44.9826C90.5469 45.2095 90.5265 45.4405 90.531 45.6717H91.674V46.1897H90.54V51.5184L89.947 51.5174Z" fill="#1A1818" stroke="#030504" stroke-width="0.198" stroke-miterlimit="10"/>
<path d="M92.7209 44.6545V43.7944H93.3419V44.6545H92.7209ZM92.743 45.6697H93.3199V51.5164H92.743V45.6697Z" fill="#1A1818" stroke="#030504" stroke-width="0.198" stroke-miterlimit="10"/>
<path d="M96.5929 51.5174C96.2719 51.5312 95.9532 51.4569 95.6719 51.3026C95.4354 51.1599 95.2449 50.9529 95.1229 50.706C94.9848 50.4193 94.8949 50.1119 94.8569 49.7962C94.8066 49.4138 94.7826 49.0284 94.7849 48.6428C94.7822 48.2065 94.8026 47.7704 94.8459 47.3362C94.8725 47.0049 94.965 46.6822 95.1179 46.3866C95.2593 46.1318 95.479 45.9287 95.7449 45.8069C96.0975 45.6604 96.4781 45.5926 96.8599 45.6081C97.16 45.6036 97.4591 45.6424 97.7479 45.7234C97.9949 45.7938 98.2201 45.9248 98.4029 46.1042C98.5893 46.2992 98.7263 46.5353 98.8029 46.7933C98.9031 47.1314 98.95 47.4829 98.9419 47.8354C98.963 48.0918 98.9028 48.3484 98.7699 48.5692C98.6831 48.6557 98.5774 48.7211 98.461 48.7604C98.3446 48.7998 98.2207 48.8119 98.0989 48.7959H95.3809C95.3809 49.0531 95.3902 49.3123 95.4089 49.5735C95.4234 49.8165 95.4739 50.0561 95.5589 50.2844C95.6312 50.4857 95.7553 50.6647 95.9189 50.8035C96.1118 50.9468 96.3496 51.0173 96.5899 51.0023H98.8169V51.5204L96.5929 51.5174ZM98.1019 48.2739C98.1393 48.2788 98.1774 48.2732 98.2118 48.2575C98.2461 48.2419 98.2753 48.2168 98.2959 48.1854C98.3278 48.1317 98.345 48.0707 98.3459 48.0084V47.9308C98.3516 47.6329 98.3255 47.3353 98.2679 47.0429C98.2301 46.8417 98.1444 46.6525 98.0179 46.491C97.8986 46.3524 97.74 46.2526 97.5629 46.2047C97.3369 46.1451 97.1036 46.1173 96.8699 46.1221C96.6184 46.1149 96.3675 46.1485 96.1269 46.2216C95.9403 46.2831 95.7801 46.4054 95.6719 46.5686C95.548 46.77 95.4702 46.9961 95.4439 47.2308C95.3988 47.5763 95.3784 47.9245 95.3829 48.2729L98.1019 48.2739Z" fill="#1A1818" stroke="#030504" stroke-width="0.198" stroke-miterlimit="10"/>
<path d="M102.562 51.5164C102.15 51.5304 101.738 51.4705 101.347 51.3394C101.058 51.235 100.806 51.0466 100.626 50.7984C100.441 50.526 100.321 50.2146 100.277 49.8887C100.213 49.4608 100.183 49.0285 100.188 48.596C100.184 48.1787 100.214 47.7617 100.277 47.3491C100.323 47.0218 100.442 46.7088 100.626 46.4333C100.806 46.1784 101.056 45.9811 101.347 45.8656C101.735 45.723 102.148 45.6575 102.562 45.6727H103.782V43.7974H104.359V50.6702C104.36 50.7848 104.35 50.8993 104.331 51.0123C104.315 51.1096 104.277 51.202 104.22 51.2827C104.16 51.3635 104.077 51.4248 103.982 51.4587C103.847 51.5041 103.704 51.5247 103.561 51.5193L102.562 51.5164ZM102.562 46.1877C102.243 46.1758 101.925 46.2244 101.624 46.3309C101.403 46.4166 101.216 46.5716 101.092 46.7724C100.959 47.0028 100.876 47.2581 100.848 47.5221C100.804 47.877 100.784 48.2344 100.787 48.592C100.783 48.9661 100.803 49.3401 100.848 49.7117C100.874 49.9745 100.957 50.2286 101.092 50.4564C101.217 50.6501 101.405 50.7959 101.624 50.8701C101.927 50.9648 102.244 51.0079 102.562 50.9973H103.338C103.538 50.9973 103.662 50.9605 103.71 50.887C103.768 50.7666 103.793 50.6331 103.782 50.5002V46.1867L102.562 46.1877Z" fill="#1A1818" stroke="#030504" stroke-width="0.198" stroke-miterlimit="10"/>
<path d="M109.606 53.3927H109.029V46.5089C109.025 46.369 109.051 46.2298 109.107 46.1012C109.152 45.9988 109.223 45.9095 109.312 45.8417C109.4 45.778 109.5 45.733 109.606 45.7095C109.722 45.683 109.842 45.67 109.961 45.6707H110.904C111.298 45.6566 111.69 45.7222 112.058 45.8636C112.34 45.9811 112.583 46.1764 112.758 46.4264C112.939 46.7015 113.059 47.0121 113.108 47.3372C113.175 47.7494 113.206 48.1666 113.202 48.5841C113.206 49.0033 113.175 49.422 113.108 49.836C113.059 50.1645 112.939 50.4788 112.758 50.7577C112.585 51.0102 112.342 51.2074 112.058 51.3254C111.691 51.4671 111.298 51.5327 110.904 51.5184H109.604L109.606 53.3927ZM109.606 50.9993H110.906C111.221 51.0134 111.534 50.9527 111.821 50.8223C112.039 50.7118 112.219 50.5386 112.337 50.3252C112.462 50.089 112.538 49.8298 112.559 49.5635C112.588 49.2699 112.603 48.9427 112.603 48.5821C112.603 48.2215 112.588 47.8944 112.559 47.6007C112.539 47.3362 112.463 47.0788 112.337 46.845C112.219 46.635 112.039 46.4657 111.821 46.3598C111.533 46.2333 111.22 46.1748 110.906 46.1887H109.963C109.869 46.1818 109.775 46.207 109.697 46.2603C109.638 46.3081 109.608 46.4164 109.608 46.5855L109.606 50.9993Z" fill="#1A1818" stroke="#030504" stroke-width="0.198" stroke-miterlimit="10"/>
<path d="M116.851 45.6707C117.047 45.6536 117.244 45.6792 117.429 45.7459C117.614 45.8125 117.782 45.9185 117.921 46.0565C118.163 46.3634 118.283 46.748 118.259 47.1373V50.7447C118.282 50.8581 118.274 50.9752 118.238 51.0849C118.202 51.1947 118.137 51.2932 118.051 51.3709C117.966 51.4486 117.861 51.503 117.748 51.5286C117.634 51.5543 117.516 51.5504 117.405 51.5174H116.029C115.805 51.5415 115.578 51.5159 115.365 51.4425C115.152 51.3691 114.958 51.2496 114.797 51.0928C114.528 50.6995 114.403 50.2264 114.442 49.7524C114.4 49.2823 114.528 48.8128 114.803 48.4279C114.966 48.2771 115.16 48.1627 115.372 48.0924C115.583 48.022 115.807 47.9975 116.029 48.0203H117.686V47.0379C117.689 46.8271 117.625 46.6207 117.503 46.4482C117.425 46.355 117.325 46.2826 117.211 46.2373C117.098 46.192 116.975 46.1753 116.854 46.1887H114.886V45.6707H116.851ZM115.875 48.5383C115.727 48.5319 115.581 48.5623 115.448 48.6268C115.341 48.6856 115.252 48.7735 115.193 48.8804C115.127 49 115.085 49.1315 115.071 49.2672C115.052 49.4282 115.042 49.5902 115.043 49.7524C115.042 49.9162 115.052 50.0799 115.071 50.2426C115.086 50.3818 115.127 50.5168 115.193 50.6403C115.252 50.7505 115.34 50.8424 115.448 50.9058C115.58 50.9739 115.727 51.0062 115.875 50.9993H117.406C117.446 51.0037 117.487 50.9985 117.524 50.9841C117.562 50.9698 117.595 50.9467 117.622 50.9168C117.662 50.8644 117.683 50.8005 117.683 50.7348V48.5393L115.875 48.5383Z" fill="#1A1818" stroke="#030504" stroke-width="0.198" stroke-miterlimit="10"/>
<path d="M121.488 51.5164C121.193 51.5314 120.898 51.4765 120.628 51.3563C120.44 51.2649 120.285 51.1184 120.184 50.9367C120.089 50.7538 120.034 50.5528 120.023 50.347C120.008 50.1263 120 49.8983 120.001 49.6629V46.1877H119.301V45.6697H120.001V43.7944H120.578V45.6697H121.71V46.1877H120.578V49.829C120.575 50.0193 120.59 50.2094 120.623 50.3968C120.644 50.5285 120.699 50.6525 120.784 50.7557C120.868 50.848 120.978 50.9135 121.1 50.9437C121.271 50.9849 121.446 51.0037 121.622 50.9993H121.711V51.5174L121.488 51.5164Z" fill="#1A1818" stroke="#030504" stroke-width="0.198" stroke-miterlimit="10"/>
<path d="M122.752 43.7944H123.329V45.6697H125.038C125.282 45.6435 125.528 45.6736 125.758 45.7578C125.988 45.842 126.196 45.9779 126.364 46.1549C126.652 46.5925 126.786 47.1122 126.747 47.6335V51.5164H126.17V47.5669C126.191 47.2117 126.11 46.8579 125.937 46.5467C125.83 46.4152 125.692 46.3131 125.534 46.2503C125.377 46.1874 125.205 46.1659 125.037 46.1877H123.328V51.5164H122.751L122.752 43.7944Z" fill="#1A1818" stroke="#030504" stroke-width="0.198" stroke-miterlimit="10"/>
<path d="M133.002 51.5164C132.707 51.5314 132.412 51.4766 132.142 51.3563C131.954 51.2649 131.799 51.1184 131.698 50.9367C131.603 50.7538 131.548 50.5528 131.537 50.347C131.522 50.1263 131.514 49.8983 131.515 49.6629V46.1877H130.815V45.6697H131.515V43.7944H132.092V45.6697H133.224V46.1877H132.092V49.829C132.089 50.0192 132.103 50.2093 132.136 50.3968C132.157 50.5285 132.212 50.6524 132.297 50.7557C132.381 50.848 132.491 50.9134 132.613 50.9437C132.783 50.985 132.959 51.0037 133.134 50.9993H133.223V51.5174L133.002 51.5164Z" fill="#1A1818" stroke="#030504" stroke-width="0.198" stroke-miterlimit="10"/>
<path d="M136.42 45.6041C136.835 45.5922 137.25 45.65 137.646 45.7751C137.946 45.8737 138.209 46.0602 138.4 46.31C138.595 46.5864 138.724 46.9033 138.777 47.2367C138.851 47.6813 138.884 48.1316 138.877 48.5821C138.883 49.0347 138.848 49.487 138.772 49.9334C138.72 50.2688 138.591 50.5879 138.395 50.8661C138.203 51.1166 137.941 51.3049 137.641 51.407C136.839 51.642 135.986 51.642 135.184 51.407C134.886 51.304 134.626 51.1158 134.435 50.8661C134.239 50.5881 134.11 50.269 134.058 49.9334C133.982 49.487 133.947 49.0347 133.953 48.5821C133.947 48.1314 133.982 47.6811 134.058 47.2367C134.111 46.9032 134.24 46.5861 134.435 46.31C134.625 46.0609 134.886 45.8745 135.184 45.7751C135.582 45.6493 135.998 45.5914 136.415 45.6041H136.42ZM134.556 48.587C134.55 48.9821 134.578 49.3769 134.639 49.7673C134.678 50.0416 134.778 50.3036 134.933 50.534C135.074 50.7291 135.274 50.8741 135.504 50.9476C136.104 51.1095 136.736 51.1095 137.335 50.9476C137.565 50.8739 137.765 50.729 137.906 50.534C138.06 50.3034 138.161 50.0415 138.2 49.7673C138.261 49.3769 138.289 48.9821 138.283 48.587C138.289 48.1937 138.261 47.8005 138.2 47.4117C138.161 47.1409 138.06 46.8826 137.906 46.6561C137.764 46.4639 137.564 46.3212 137.335 46.2484C136.736 46.0859 136.103 46.0859 135.504 46.2484C135.275 46.3211 135.075 46.4638 134.933 46.6561C134.778 46.8823 134.678 47.1408 134.639 47.4117C134.578 47.7988 134.55 48.1903 134.556 48.5821V48.587Z" fill="#1A1818" stroke="#030504" stroke-width="0.198" stroke-miterlimit="10"/>
<path d="M146.271 51.5164C145.745 51.5384 145.222 51.4326 144.746 51.2081C144.373 51.0175 144.062 50.7272 143.846 50.3699C143.626 49.9908 143.481 49.5732 143.419 49.1399C143.343 48.649 143.306 48.153 143.308 47.6564C143.306 47.1599 143.342 46.664 143.414 46.1728C143.473 45.7378 143.62 45.3192 143.847 44.9428C144.073 44.5826 144.396 44.2923 144.779 44.1046C145.281 43.8786 145.829 43.7727 146.379 43.7954H148.165V44.3254H146.379C145.958 44.3093 145.54 44.3868 145.153 44.5521C144.848 44.6944 144.591 44.9226 144.415 45.2083C144.225 45.5304 144.101 45.8865 144.049 46.2563C143.978 46.72 143.945 47.1885 143.949 47.6573C143.945 48.1259 143.975 48.594 144.038 49.0584C144.083 49.4267 144.2 49.7827 144.382 50.1064C144.549 50.3898 144.796 50.6181 145.092 50.7627C145.465 50.9275 145.871 51.0048 146.279 50.9884H148.287V51.5184L146.271 51.5164Z" fill="#1A1818" stroke="#030504" stroke-width="0.198" stroke-miterlimit="10"/>
<path d="M151.763 45.6707C151.959 45.6536 152.156 45.6792 152.341 45.7459C152.526 45.8125 152.694 45.9185 152.833 46.0565C153.075 46.3634 153.195 46.748 153.171 47.1373V50.7447C153.194 50.8581 153.186 50.9752 153.15 51.0849C153.114 51.1947 153.049 51.2932 152.963 51.3709C152.878 51.4486 152.773 51.503 152.66 51.5286C152.546 51.5543 152.428 51.5504 152.317 51.5174H150.941C150.717 51.5415 150.49 51.5159 150.277 51.4425C150.064 51.3691 149.87 51.2496 149.709 51.0928C149.44 50.6995 149.315 50.2264 149.354 49.7524C149.312 49.2824 149.44 48.813 149.714 48.4279C149.877 48.2771 150.071 48.1628 150.283 48.0924C150.494 48.0221 150.718 47.9976 150.94 48.0203H152.593V47.0379C152.596 46.8271 152.532 46.6208 152.41 46.4482C152.332 46.3551 152.231 46.2827 152.118 46.2374C152.005 46.1921 151.882 46.1754 151.761 46.1887H149.797V45.6707H151.763ZM150.787 48.5383C150.639 48.5319 150.493 48.5623 150.36 48.6268C150.253 48.6857 150.164 48.7736 150.105 48.8804C150.039 49 149.997 49.1315 149.983 49.2672C149.964 49.4282 149.954 49.5902 149.955 49.7524C149.954 49.9162 149.964 50.0799 149.983 50.2426C149.998 50.3818 150.039 50.5168 150.105 50.6403C150.164 50.7504 150.252 50.8423 150.36 50.9058C150.492 50.9739 150.639 51.0062 150.787 50.9993H152.321C152.361 51.0037 152.401 50.9985 152.439 50.9841C152.477 50.9698 152.51 50.9467 152.537 50.9168C152.577 50.8644 152.598 50.8005 152.598 50.7348V48.5393L150.787 48.5383Z" fill="#1A1818" stroke="#030504" stroke-width="0.198" stroke-miterlimit="10"/>
<path d="M154.814 46.5974C154.803 46.3617 154.861 46.1278 154.981 45.9242C155.056 45.8319 155.153 45.7602 155.264 45.7158C155.374 45.6714 155.495 45.6559 155.613 45.6707H157.222C157.481 45.6634 157.738 45.7046 157.982 45.792C158.172 45.8637 158.34 45.9832 158.47 46.139C158.599 46.3043 158.688 46.4968 158.731 46.7018C158.786 46.9536 158.812 47.2108 158.809 47.4684V51.5174H158.232V47.4684C158.233 47.3021 158.222 47.136 158.199 46.9712C158.18 46.8275 158.133 46.689 158.06 46.5636C157.989 46.4446 157.885 46.3487 157.76 46.2872C157.592 46.2142 157.411 46.1801 157.228 46.1877H155.751C155.659 46.1827 155.569 46.2056 155.491 46.2534C155.428 46.2971 155.397 46.4154 155.397 46.6064V51.5154H154.82L154.814 46.5974Z" fill="#1A1818" stroke="#030504" stroke-width="0.198" stroke-miterlimit="10"/>
<path d="M162.656 45.6707C162.852 45.6535 163.049 45.6791 163.234 45.7458C163.419 45.8124 163.588 45.9185 163.727 46.0565C163.969 46.3634 164.089 46.748 164.065 47.1373V50.7448C164.088 50.8581 164.08 50.9752 164.044 51.085C164.008 51.1947 163.943 51.2932 163.857 51.3709C163.772 51.4487 163.667 51.503 163.554 51.5287C163.44 51.5543 163.322 51.5504 163.211 51.5174H161.835C161.611 51.5414 161.384 51.5158 161.172 51.4424C160.959 51.369 160.765 51.2496 160.604 51.0928C160.335 50.6996 160.209 50.2264 160.249 49.7524C160.207 49.2824 160.335 48.813 160.609 48.428C160.772 48.2771 160.966 48.1627 161.178 48.0924C161.389 48.0221 161.613 47.9975 161.835 48.0203H163.488V47.0379C163.491 46.8271 163.427 46.6208 163.305 46.4482C163.227 46.3551 163.127 46.2827 163.013 46.2374C162.9 46.1922 162.777 46.1754 162.656 46.1887H160.693V45.6707H162.656ZM161.68 48.5383C161.532 48.532 161.386 48.5624 161.253 48.6268C161.146 48.6857 161.057 48.7736 160.998 48.8804C160.932 49.0001 160.891 49.1315 160.876 49.2672C160.857 49.4282 160.847 49.5902 160.848 49.7524C160.847 49.9162 160.857 50.0799 160.876 50.2426C160.891 50.3817 160.932 50.5167 160.998 50.6403C161.057 50.7504 161.145 50.8423 161.253 50.9058C161.385 50.9739 161.532 51.0061 161.68 50.9993H163.213C163.253 51.0037 163.294 50.9985 163.331 50.9842C163.369 50.9698 163.402 50.9467 163.429 50.9168C163.469 50.8645 163.49 50.8005 163.49 50.7348V48.5393L161.68 48.5383Z" fill="#1A1818" stroke="#030504" stroke-width="0.198" stroke-miterlimit="10"/>
<path d="M167.882 51.5164C167.47 51.5304 167.058 51.4705 166.667 51.3394C166.378 51.235 166.126 51.0466 165.946 50.7984C165.761 50.526 165.641 50.2147 165.596 49.8886C165.533 49.4607 165.503 49.0285 165.508 48.596C165.504 48.1787 165.533 47.7617 165.596 47.3491C165.643 47.0217 165.762 46.7088 165.946 46.4333C166.126 46.1784 166.376 45.9811 166.667 45.8656C167.056 45.7231 167.468 45.6575 167.882 45.6727H169.103V43.7974H169.68V50.6702C169.681 50.7848 169.671 50.8993 169.652 51.0123C169.636 51.1096 169.598 51.2021 169.541 51.2827C169.481 51.3637 169.398 51.425 169.302 51.4587C169.167 51.5042 169.024 51.5248 168.881 51.5193L167.882 51.5164ZM167.882 46.1877C167.563 46.1759 167.245 46.2245 166.945 46.3309C166.724 46.4166 166.537 46.5716 166.412 46.7724C166.279 47.0028 166.196 47.2581 166.168 47.5221C166.124 47.8771 166.104 48.2345 166.107 48.592C166.103 48.9661 166.124 49.3401 166.168 49.7116C166.194 49.9745 166.278 50.2286 166.412 50.4564C166.538 50.6501 166.726 50.7959 166.945 50.8701C167.248 50.9647 167.565 51.0077 167.882 50.9973H168.659C168.859 50.9973 168.983 50.9605 169.031 50.887C169.089 50.7666 169.114 50.6331 169.103 50.5002V46.1867L167.882 46.1877Z" fill="#1A1818" stroke="#030504" stroke-width="0.198" stroke-miterlimit="10"/>
<path d="M173.53 45.6707C173.726 45.6537 173.923 45.6793 174.108 45.746C174.293 45.8126 174.461 45.9186 174.6 46.0565C174.842 46.3634 174.962 46.748 174.938 47.1373V50.7448C174.961 50.8581 174.953 50.9753 174.917 51.085C174.881 51.1947 174.816 51.2932 174.731 51.3709C174.645 51.4487 174.54 51.503 174.427 51.5287C174.313 51.5543 174.195 51.5504 174.084 51.5174H172.708C172.484 51.5415 172.257 51.5159 172.044 51.4425C171.831 51.3691 171.637 51.2497 171.476 51.0928C171.207 50.6995 171.082 50.2264 171.121 49.7524C171.079 49.2824 171.207 48.813 171.481 48.428C171.644 48.2771 171.838 48.1627 172.05 48.0924C172.261 48.0221 172.485 47.9975 172.707 48.0203H174.36V47.0379C174.363 46.8271 174.299 46.6207 174.177 46.4482C174.099 46.3551 173.999 46.2826 173.885 46.2373C173.772 46.192 173.649 46.1753 173.528 46.1887H171.564V45.6707H173.53ZM172.553 48.5384C172.406 48.5319 172.259 48.5623 172.126 48.6268C172.019 48.6856 171.93 48.7736 171.871 48.8804C171.805 49.0001 171.764 49.1315 171.749 49.2672C171.73 49.4282 171.721 49.5903 171.722 49.7524C171.721 49.9162 171.73 50.0799 171.749 50.2426C171.764 50.3817 171.805 50.5168 171.871 50.6404C171.93 50.7505 172.018 50.8424 172.126 50.9058C172.258 50.974 172.405 51.0063 172.553 50.9993H174.084C174.124 51.0037 174.165 50.9984 174.202 50.984C174.24 50.9697 174.273 50.9466 174.3 50.9168C174.34 50.8645 174.361 50.8005 174.361 50.7348V48.5394L172.553 48.5384Z" fill="#1A1818" stroke="#030504" stroke-width="0.198" stroke-miterlimit="10"/>
<path fill-rule="evenodd" clip-rule="evenodd" d="M34.4981 41.3006L27.8201 43.4881C26.0201 44.0761 24.2201 44.6664 22.4201 45.259C20.0731 45.5335 17.7421 45.8059 15.2721 46.1012L15.2051 46.1082L15.2121 46.0803L16.3421 42.3228C16.4263 41.9983 16.4151 41.6566 16.3098 41.3383C16.2045 41.02 16.0096 40.7384 15.7481 40.527L11.2861 36.838L11.3801 36.8042C12.2021 36.495 13.0211 36.1838 13.8421 35.8775C14.9861 35.445 16.1321 35.0194 17.2751 34.5849C17.4741 34.5037 17.6972 34.5037 17.8961 34.5849C23.3775 36.6876 28.8585 38.7873 34.3391 40.884C34.5136 40.9279 34.678 41.0049 34.8231 41.1107C34.7511 41.2608 34.6111 41.2608 34.4981 41.3006Z" fill="#E50019"/>
<path d="M34.825 41.1127C34.751 41.2608 34.611 41.2608 34.498 41.3006L27.82 43.4881C26.02 44.0761 24.22 44.6664 22.42 45.259L17.893 46.7416C17.6913 46.8137 17.4707 46.8137 17.269 46.7416C16.6024 46.5268 15.9357 46.3123 15.269 46.0982L15.209 46.0774L0.376022 41.2956C0.247022 41.2539 0.123023 41.1962 -0.000976562 41.1495V41.0808C3.75902 39.6643 7.52035 38.2493 11.283 36.836L11.377 36.8022C12.199 36.493 13.018 36.1818 13.839 35.8755C14.983 35.443 16.129 35.0174 17.272 34.5829C17.471 34.5017 17.6941 34.5017 17.893 34.5829C23.3744 36.6856 28.8554 38.7852 34.336 40.882C34.5122 40.9266 34.678 41.005 34.824 41.1127H34.825Z" fill="#121A50"/>
<path d="M27.881 46.9603C27.881 47.6822 27.875 48.4051 27.881 49.127C27.881 49.3577 27.796 49.4432 27.563 49.4491C24.1347 49.5942 20.8059 50.6381 17.914 52.4749C17.796 52.5649 17.6521 52.6149 17.5034 52.6174C17.3546 52.6199 17.209 52.5748 17.088 52.4888C14.5773 50.9773 11.7904 49.9753 8.88805 49.5406C8.44105 49.477 7.98805 49.471 7.53305 49.4352C7.10005 49.4014 7.07204 49.3736 7.07104 48.951V44.922C7.07104 44.4785 7.09005 44.4646 7.50905 44.6048C10.6904 45.67 13.8704 46.7376 17.049 47.8075C17.2916 47.8984 17.5586 47.9012 17.803 47.8154C21.003 46.7455 24.2077 45.6813 27.417 44.6226C27.876 44.4705 27.877 44.4715 27.877 44.9627C27.8804 45.6289 27.8817 46.2948 27.881 46.9603Z" fill="#121A50"/>
<path d="M30.3221 46.8579V50.1392C30.3131 50.2385 30.3278 50.3385 30.365 50.4311C30.4022 50.5237 30.4608 50.6063 30.5361 50.6721C30.6346 50.7542 30.7157 50.8551 30.7745 50.9687C30.8334 51.0824 30.8688 51.2066 30.8786 51.3341C30.8885 51.4615 30.8726 51.5897 30.832 51.711C30.7914 51.8322 30.7268 51.9442 30.6421 52.0404C30.5281 52.1865 30.5121 52.2671 30.6491 52.4003C30.7272 52.4828 30.7876 52.5803 30.8264 52.6868C30.8653 52.7933 30.8818 52.9066 30.8751 53.0198V59.653C30.8751 59.8876 30.8131 60.0079 30.5501 60C30.0631 59.9861 29.5741 59.99 29.0871 60C28.8691 60 28.7871 59.9184 28.7871 59.7017C28.7917 57.4479 28.7917 55.1917 28.7871 52.9333C28.7758 52.7846 28.8223 52.6372 28.917 52.5216C29.117 52.3228 29.1171 52.1746 28.9411 51.9379C28.8081 51.7505 28.7499 51.5207 28.7778 51.293C28.8057 51.0654 28.9177 50.8561 29.0921 50.7059C29.1793 50.6289 29.2471 50.5325 29.2898 50.4245C29.3326 50.3165 29.3491 50.2 29.3381 50.0845C29.3311 47.9865 29.3381 45.8884 29.3381 43.7894C29.3717 43.5928 29.4783 43.416 29.6369 43.2939C29.7954 43.1718 29.9942 43.1134 30.1941 43.1301C30.3791 43.1799 30.3171 43.3519 30.3181 43.4742C30.3231 44.5351 30.3181 45.5951 30.3181 46.656C30.3201 46.7243 30.3214 46.7916 30.3221 46.8579Z" fill="#121A50"/>
<path d="M44.4511 46.1102L43.3211 42.3257C43.237 42.0025 43.2468 41.6622 43.3495 41.3443C43.4521 41.0264 43.6434 40.744 43.9011 40.53L56.8511 29.826L54.1681 28.5403C52.9921 28.1128 53.3241 27.4396 53.7421 25.8168L55.7161 18.4995L48.2001 20.1084C47.9159 20.1664 47.6201 20.1147 47.3727 19.9639C47.1254 19.813 46.945 19.5742 46.8681 19.296L45.8951 15.8546L39.9491 22.632C39.1041 23.7188 37.3921 23.7188 37.9291 21.2061L40.4691 7.47738L37.0611 9.27612C36.1021 9.81604 35.1511 9.90553 34.6081 8.93506L29.8241 0L25.0401 8.93307C24.5061 9.90354 23.5461 9.81604 22.5941 9.27612L19.1861 7.47738L21.7291 21.2061C22.2561 23.7188 20.5461 23.7188 19.6991 22.632L13.7521 15.8546L12.7861 19.296C12.708 19.5736 12.5275 19.8116 12.2805 19.9626C12.0336 20.1136 11.7385 20.1663 11.4541 20.1104L3.93413 18.4995L5.90613 25.8148C6.33213 27.4376 6.66312 28.1128 5.48712 28.5423L2.79712 29.826L10.1151 35.8735L14.4351 34.2488L16.8011 33.3539C17.0501 33.2587 17.3144 33.2092 17.5811 33.2077C17.852 33.2094 18.1204 33.26 18.3731 33.3569C21.8271 34.6826 25.2795 36.0051 28.7301 37.3243L34.8191 39.658C34.8461 39.6669 34.8691 39.6768 34.8921 39.6838C35.2002 39.7761 35.4844 39.9338 35.7251 40.1462L36.4571 40.8193L36.0111 41.7053C35.9019 41.9207 35.7457 42.1091 35.5538 42.2567C35.3619 42.4043 35.1393 42.5074 34.9021 42.5584L30.7461 43.9276V44.5163L31.5461 44.5998C36.0011 45.1148 39.9961 45.5812 44.4511 46.1102Z" fill="#E50019"/>
</svg>
