<svg width="31" height="34" viewBox="0 0 31 34" fill="none" xmlns="http://www.w3.org/2000/svg">
<path d="M15.7014 26.2039C15.5034 25.7689 15.0934 25.4515 14.5972 25.3951C14.177 25.3471 13.7656 25.2571 13.3744 25.1273C13.199 25.0683 13.0344 25.0039 12.882 24.9349L13.1352 24.2447C13.314 24.3245 13.4982 24.3975 13.6868 24.4635L13.6946 24.4663L13.7026 24.4689C14.3078 24.6689 14.9034 24.7703 15.4724 24.7703C16.0438 24.7703 16.458 24.6937 16.7762 24.5295L16.7952 24.5197L16.8138 24.5089C17.2958 24.2323 17.5724 23.7569 17.5724 23.2043C17.5724 22.5911 17.2416 22.0821 16.6646 21.8071C16.3744 21.6659 15.9622 21.5311 15.3684 21.3835C14.7594 21.2295 14.2478 21.0661 13.851 20.8987C13.561 20.7675 13.3094 20.5581 13.0826 20.2587C12.8874 19.9915 12.7886 19.5897 12.7886 19.0639C12.7886 18.4295 12.9672 17.9059 13.3348 17.4631C13.662 17.0751 14.1266 16.8115 14.7502 16.6637C15.2128 16.5541 15.5736 16.2239 15.7358 15.7975C15.9192 16.2297 16.3094 16.5511 16.795 16.6285C17.2006 16.6931 17.573 16.7961 17.9078 16.9355L17.6748 17.6119C17.0426 17.3581 16.4204 17.2299 15.8186 17.2299C13.82 17.2299 13.7188 18.6087 13.7188 18.8851C13.7188 19.4843 14.0424 19.9867 14.6066 20.2637L14.6224 20.2715L14.6384 20.2787C14.9234 20.4059 15.3278 20.5285 15.9114 20.6645C16.5148 20.8009 17.018 20.9571 17.4134 21.1303L17.4216 21.1339L17.4298 21.1373C17.7234 21.2595 17.9752 21.4635 18.1996 21.7611L18.2032 21.7657L18.2068 21.7705C18.403 22.0241 18.5026 22.4163 18.5026 22.9363C18.5026 23.5365 18.3288 24.0445 17.9712 24.4895C17.661 24.8755 17.228 25.1427 16.647 25.3063C16.1984 25.4327 15.8504 25.7757 15.7014 26.2039Z" fill="white"/>
<path d="M16.2069 28H15.2439C15.0285 28 14.8539 27.821 14.8539 27.6V26.797C14.8539 26.5858 14.6937 26.4122 14.4889 26.3888C14.0013 26.3334 13.5297 26.23 13.0739 26.0788C12.6311 25.9296 12.2475 25.7528 11.923 25.5478C11.7739 25.4536 11.7197 25.2624 11.7813 25.0944L12.4419 23.2932C12.5309 23.0508 12.8179 22.958 13.0389 23.0834C13.3373 23.2524 13.6581 23.397 14.0009 23.517C14.5119 23.6858 15.0023 23.7702 15.4719 23.7702C15.8757 23.7702 16.1643 23.7256 16.3373 23.6362C16.5103 23.5368 16.5969 23.3928 16.5969 23.2042C16.5969 22.9858 16.4815 22.822 16.2507 22.7128C16.0283 22.6036 15.6573 22.4844 15.1383 22.3554C14.4707 22.1866 13.9145 22.0078 13.4695 21.8192C13.0245 21.6206 12.6371 21.3028 12.3075 20.866C11.9778 20.4192 11.813 19.8184 11.813 19.0638C11.813 18.19 12.0726 17.4404 12.5917 16.8148C13.0597 16.26 13.7057 15.8848 14.5301 15.6894C14.7157 15.6454 14.8539 15.4802 14.8539 15.285V14.4C14.8539 14.179 15.0285 14 15.2439 14H16.2069C16.4223 14 16.5969 14.179 16.5969 14.4V15.2344C16.5969 15.4388 16.7473 15.609 16.9441 15.6404C17.6663 15.7554 18.3009 15.9732 18.8477 16.2938C19.0029 16.3848 19.0645 16.5784 19.0049 16.7512L18.3867 18.545C18.3049 18.7828 18.0319 18.8834 17.8123 18.7698C17.1159 18.4098 16.4513 18.2298 15.8181 18.2298C15.0681 18.2298 14.6931 18.4482 14.6931 18.885C14.6931 19.0936 14.8045 19.2524 15.0269 19.3618C15.2495 19.461 15.6161 19.5702 16.1271 19.6894C16.7863 19.8384 17.3427 20.012 17.7959 20.2106C18.2491 20.3992 18.6405 20.712 18.9703 21.149C19.3081 21.5858 19.4771 22.1816 19.4771 22.9362C19.4771 23.7702 19.2257 24.5 18.7229 25.1256C18.2851 25.6708 17.6789 26.0524 16.9047 26.2706C16.7267 26.3208 16.5969 26.4824 16.5969 26.6716V27.6C16.5969 27.821 16.4223 28 16.2069 28Z" fill="white"/>
<path fill-rule="evenodd" clip-rule="evenodd" d="M11.4347 2H19.8782C22.0408 2 20.8532 5.328 19.9776 7.358L18.9812 9.686L18.8466 10C19.7904 9.95302 20.7238 10.2211 21.5064 10.764C24.4342 13.5116 26.8104 16.8196 28.5012 20.502C29.16 21.8636 29.4214 23.3916 29.2538 24.902C29.0526 28.7518 26.0412 31.8196 22.2864 32H9.02645C5.27065 31.825 2.2548 28.7604 2.04936 24.91C1.88174 23.3996 2.14312 21.8716 2.80206 20.51C4.49483 16.824 6.87431 13.513 9.80645 10.764C10.5892 10.2211 11.5224 9.95302 12.4662 10L12.3102 9.638L11.3353 7.358C10.4636 5.328 9.27019 2 11.4347 2Z" stroke="white" stroke-width="3" stroke-linecap="round" stroke-linejoin="round"/>
<path d="M18.8469 11.5C19.6753 11.5 20.3469 10.8285 20.3469 10C20.3469 9.17162 19.6753 8.50004 18.8469 8.50004V11.5ZM12.4665 8.50004C11.6381 8.50004 10.9665 9.17162 10.9665 10C10.9665 10.8285 11.6381 11.5 12.4665 11.5V8.50004ZM24.2055 9.2998C24.9233 8.88628 25.1701 7.96914 24.7565 7.2513C24.3429 6.53345 23.4259 6.28676 22.7081 6.70028L24.2055 9.2998ZM18.9815 9.68604L19.2709 11.1579L19.2753 11.157L18.9815 9.68604ZM12.3105 9.63804L12.6211 8.17046L12.6075 8.1677L12.3105 9.63804ZM8.58228 6.68718C7.8572 6.28648 6.94458 6.54941 6.54388 7.27448C6.14316 7.99956 6.4061 8.91218 7.13118 9.3129L8.58228 6.68718ZM18.8469 8.50004H12.4665V11.5H18.8469V8.50004ZM22.7081 6.70028C21.4541 7.4226 20.0969 7.9337 18.6877 8.21508L19.2753 11.157C21.0059 10.8114 22.6705 10.1841 24.2055 9.2998L22.7081 6.70028ZM18.6921 8.21422C16.6853 8.60886 14.6225 8.59394 12.6211 8.17046L12 11.1055C14.3967 11.6127 16.8675 11.6305 19.2709 11.1579L18.6921 8.21422ZM12.6075 8.1677C11.202 7.88396 9.84518 7.38514 8.58228 6.68718L7.13118 9.3129C8.6608 10.1582 10.3066 10.7637 12.0137 11.1084L12.6075 8.1677Z" fill="white"/>
</svg>
