<svg width="50" height="29" viewBox="0 0 50 29" fill="none" xmlns="http://www.w3.org/2000/svg">
<path fill-rule="evenodd" clip-rule="evenodd" d="M12.0547 16.3135L22.897 20.3936C23.7413 20.7114 24.6724 20.7096 25.5156 20.3886L36.106 16.3569L36.1059 24.1098C36.106 24.1171 36.106 24.1244 36.106 24.1317C36.106 26.5203 30.7219 28.4566 24.0804 28.4566C17.4388 28.4566 12.0547 26.5203 12.0547 24.1317C12.0547 24.1293 12.0547 24.1268 12.0547 24.1244C12.0547 24.1195 12.0547 24.1146 12.0547 24.1098V16.3135Z" fill="white"/>
<path d="M45.8799 22.1396C46.2417 21.4739 46.6507 20.609 46.9972 19.8402C47.2668 19.2416 48.0344 19.1097 48.3642 19.677C48.9428 20.6705 49.324 21.8558 49.5135 22.6456C49.5737 22.8964 49.5209 23.1685 49.3282 23.3399C48.5124 24.0671 47.2525 23.8723 46.2741 23.5004C45.7493 23.301 45.6113 22.6336 45.8799 22.1396Z" fill="white"/>
<path fill-rule="evenodd" clip-rule="evenodd" d="M47.7202 19.7816C47.6169 19.7959 47.49 19.8723 47.4182 20.0315C47.0703 20.8039 46.6557 21.681 46.2856 22.362C46.2073 22.5061 46.1902 22.6748 46.2263 22.8127C46.2611 22.9443 46.3361 23.0281 46.4376 23.0666C46.8952 23.2407 47.3983 23.3647 47.8648 23.3684C48.328 23.3721 48.7226 23.258 49.0196 22.9933C49.0529 22.9637 49.0932 22.8843 49.0622 22.7546C48.8783 21.9898 48.5105 20.8518 47.9634 19.9113C47.8972 19.7973 47.8096 19.7693 47.7202 19.7816ZM47.5938 18.8618C48.038 18.8004 48.4998 18.9901 48.7634 19.4434L48.3632 19.6774M47.5938 18.8618C47.1634 18.9213 46.772 19.2101 46.5737 19.6495L47.5938 18.8618ZM48.7634 19.4434C49.3726 20.4898 49.7672 21.7224 49.9627 22.5372C50.0521 22.9093 49.9868 23.3739 49.6352 23.6872C49.1164 24.1497 48.4725 24.3018 47.8573 24.2969C47.2454 24.292 46.6293 24.1327 46.1087 23.9348C45.2396 23.6045 45.115 22.5751 45.4717 21.9179C45.8256 21.2674 46.2291 20.4149 46.5737 19.6495" fill="white"/>
<path fill-rule="evenodd" clip-rule="evenodd" d="M46.8928 18.6128C47.0906 18.4504 47.3824 18.4797 47.5445 18.6781C47.7034 18.8727 47.785 19.1587 47.8364 19.3967C47.8924 19.6592 47.9313 19.966 47.9582 20.2746C48.0119 20.8932 48.0212 21.5626 48.0133 21.9923C48.0087 22.2487 47.7975 22.4527 47.5418 22.4481C47.2861 22.4434 47.0822 22.2318 47.0873 21.9755C47.0943 21.5685 47.0855 20.9329 47.0354 20.3551C47.01 20.0655 46.9757 19.8014 46.9308 19.5923C46.9081 19.4878 46.8849 19.4051 46.8622 19.3438C46.8409 19.286 46.8265 19.265 46.8265 19.265L46.8275 19.2661C46.6653 19.0676 46.6945 18.7752 46.8928 18.6128Z" fill="white"/>
<path fill-rule="evenodd" clip-rule="evenodd" d="M47.4605 9.65137C47.844 9.65137 48.1553 9.96317 48.1553 10.3478V18.0598C48.1553 18.4444 47.844 18.7562 47.4605 18.7562C47.0764 18.7562 46.7656 18.4444 46.7656 18.0598V10.3478C46.7656 9.96317 47.0764 9.65137 47.4605 9.65137Z" fill="white"/>
<path d="M49.3713 18.3336C49.3713 19.3921 48.5152 20.2502 47.4591 20.2502C46.4029 20.2502 45.5469 19.3921 45.5469 18.3336C45.5469 17.2751 46.4029 16.417 47.4591 16.417C48.5152 16.417 49.3713 17.2751 49.3713 18.3336Z" fill="white"/>
<path d="M22.7604 0.734469L0.30788 9.70107C-0.107078 9.86681 -0.101149 10.4575 0.317006 10.6149L22.8338 19.0884C23.7248 19.4237 24.7074 19.4218 25.5971 19.0831L47.8428 10.6143C48.2588 10.456 48.2644 9.86853 47.8521 9.70181L25.6702 0.740273C24.7371 0.363338 23.6949 0.361248 22.7604 0.734469Z" fill="white"/>
<path fill-rule="evenodd" clip-rule="evenodd" d="M41.228 11.147C41.3155 11.3879 41.1918 11.6544 40.9515 11.7423L25.1066 17.5378C24.8662 17.6256 24.6003 17.5016 24.5126 17.2608C24.4249 17.0199 24.5486 16.7534 24.7889 16.6655L40.6339 10.87C40.8742 10.7822 41.1401 10.9062 41.228 11.147Z" fill="white"/>
<path fill-rule="evenodd" clip-rule="evenodd" d="M3.95815 10.0721C4.04625 9.83139 4.31242 9.7078 4.55261 9.7961L9.84807 11.743C10.0883 11.8313 10.2115 12.098 10.1234 12.3387C10.0353 12.5795 9.76918 12.703 9.529 12.6147L4.23353 10.6678C3.99335 10.5795 3.87004 10.3128 3.95815 10.0721Z" fill="white"/>
</svg>
