<svg width="30" height="30" viewBox="0 0 30 30" fill="none" xmlns="http://www.w3.org/2000/svg">
<path d="M28.7143 9.55842H26.4027C25.979 7.09771 24.768 4.84378 22.9201 3.11678C20.7695 1.10701 17.9569 0 15 0C12.0431 0 9.23035 1.1069 7.07996 3.11684C5.23214 4.84384 4.02124 7.09765 3.59755 9.55836H1.28573C0.575685 9.5583 0 10.134 0 10.8441V21.1298C0 21.8398 0.575685 22.4155 1.28573 22.4155H7.28574C7.99578 22.4155 8.57146 21.8398 8.57146 21.1298V10.8441C8.57146 10.134 7.99578 9.55836 7.28574 9.55836H6.21927C6.42704 8.63896 6.7772 7.77423 7.24496 6.98708H22.7553C23.2231 7.77418 23.5733 8.63896 23.7811 9.55836H22.7144C22.0043 9.55836 21.4287 10.134 21.4287 10.8441V21.1298C21.4287 21.8398 22.0043 22.4155 22.7144 22.4155H24V25.3279C24 25.9718 23.4762 26.4957 22.8322 26.4957H20.6146C20.438 25.9967 19.9632 25.6386 19.4037 25.6386H15C14.29 25.6386 13.7143 26.2143 13.7143 26.9243V28.6386C13.7143 29.3486 14.29 29.9243 15 29.9243H19.4036C19.9631 29.9243 20.4378 29.5662 20.6146 29.0671H22.8322C24.894 29.0671 26.5714 27.3897 26.5714 25.3278V22.4154H28.7143C29.4243 22.4154 30 21.8398 30 21.1297V10.8441C30.0001 10.1341 29.4244 9.55842 28.7143 9.55842ZM6.00001 19.8441H2.57145V12.1298H4.73069C4.73315 12.1298 4.73585 12.13 4.73831 12.13C4.74013 12.13 4.74171 12.1298 4.74353 12.1298H6.00001V19.8441ZM9.53978 4.41569C11.0603 3.25794 12.957 2.57139 15 2.57139C17.0431 2.57139 18.9399 3.25794 20.4603 4.41569H9.53978ZM27.4286 19.8441H24V12.1298H27.4286V19.8441Z" fill="white"/>
</svg>
