<svg width="16" height="15" viewBox="0 0 16 15" fill="none" xmlns="http://www.w3.org/2000/svg">
<path d="M4.22852 4.43359V15H1.17188V4.43359H4.22852ZM0.986328 1.69922C0.986328 1.25651 1.14258 0.895182 1.45508 0.615234C1.76758 0.328776 2.17773 0.185547 2.68555 0.185547C3.19336 0.185547 3.60352 0.328776 3.91602 0.615234C4.23503 0.895182 4.39453 1.25651 4.39453 1.69922C4.39453 2.13542 4.23503 2.49674 3.91602 2.7832C3.60352 3.06315 3.19336 3.20312 2.68555 3.20312C2.17773 3.20312 1.76758 3.06315 1.45508 2.7832C1.14258 2.49674 0.986328 2.13542 0.986328 1.69922ZM9.41406 6.68945V15H6.35742V4.43359H9.22852L9.41406 6.68945ZM9.01367 9.3457L8.25195 9.36523C8.25195 8.57096 8.34961 7.85807 8.54492 7.22656C8.74023 6.59505 9.01693 6.05794 9.375 5.61523C9.73958 5.16602 10.1725 4.82422 10.6738 4.58984C11.1816 4.35547 11.7415 4.23828 12.3535 4.23828C12.8483 4.23828 13.3008 4.3099 13.7109 4.45312C14.1211 4.59635 14.4727 4.82747 14.7656 5.14648C15.0651 5.45898 15.293 5.87565 15.4492 6.39648C15.6055 6.91081 15.6836 7.54557 15.6836 8.30078V15H12.6172V8.29102C12.6172 7.84831 12.5553 7.50651 12.4316 7.26562C12.3079 7.02474 12.1257 6.85547 11.8848 6.75781C11.6504 6.66016 11.3639 6.61133 11.0254 6.61133C10.6673 6.61133 10.3613 6.68294 10.1074 6.82617C9.85352 6.96289 9.64518 7.15495 9.48242 7.40234C9.31966 7.64974 9.19922 7.93945 9.12109 8.27148C9.04948 8.60352 9.01367 8.96159 9.01367 9.3457Z" fill="white"/>
</svg>
