<svg width="14" height="14" viewBox="0 0 14 14" fill="none" xmlns="http://www.w3.org/2000/svg">
<path d="M9.46 0H3.87333C1.44667 0 0 1.44667 0 3.87333V9.45333C0 11.8867 1.44667 13.3333 3.87333 13.3333H9.45333C11.88 13.3333 13.3267 11.8867 13.3267 9.46V3.87333C13.3333 1.44667 11.8867 0 9.46 0ZM6.66667 9.25333C5.24 9.25333 4.08 8.09333 4.08 6.66667C4.08 5.24 5.24 4.08 6.66667 4.08C8.09333 4.08 9.25333 5.24 9.25333 6.66667C9.25333 8.09333 8.09333 9.25333 6.66667 9.25333ZM10.6133 3.25333C10.58 3.33333 10.5333 3.40667 10.4733 3.47333C10.4067 3.53333 10.3333 3.58 10.2533 3.61333C10.1733 3.64667 10.0867 3.66667 10 3.66667C9.82 3.66667 9.65333 3.6 9.52667 3.47333C9.46667 3.40667 9.42 3.33333 9.38667 3.25333C9.35333 3.17333 9.33333 3.08667 9.33333 3C9.33333 2.91333 9.35333 2.82667 9.38667 2.74667C9.42 2.66 9.46667 2.59333 9.52667 2.52667C9.68 2.37333 9.91333 2.3 10.1267 2.34667C10.1733 2.35333 10.2133 2.36667 10.2533 2.38667C10.2933 2.4 10.3333 2.42 10.3733 2.44667C10.4067 2.46667 10.44 2.5 10.4733 2.52667C10.5333 2.59333 10.58 2.66 10.6133 2.74667C10.6467 2.82667 10.6667 2.91333 10.6667 3C10.6667 3.08667 10.6467 3.17333 10.6133 3.25333Z" fill="white"/>
</svg>
