<svg width="30" height="30" viewBox="0 0 30 30" fill="none" xmlns="http://www.w3.org/2000/svg">
<path d="M29.2316 2.35039L19.9757 0.02915C19.8223 -0.00935844 19.6648 -0.00851674 19.5149 0.0273614L19.5112 0.0277822L10.2619 2.29221L1.23818 0.02915C0.939293 -0.0459731 0.623939 0.0258884 0.382424 0.224112C0.140808 0.422336 0 0.724933 0 1.04521V22.8658C0 23.3489 0.317576 23.7689 0.768384 23.8819L10.0243 26.2032C10.102 26.2227 10.1808 26.2323 10.2592 26.2323C10.3362 26.2323 10.4126 26.2224 10.4872 26.2043L10.4888 26.2045L13.6084 25.4406L15.0919 28.5389C15.5169 29.4265 16.3972 30 17.3346 30C17.7095 30 18.0692 29.9119 18.4037 29.7381C19.6125 29.1101 20.0937 27.5503 19.4766 26.2611L18.5093 24.2409L19.7382 23.9401L28.7619 26.2032C28.8396 26.2227 28.9184 26.2323 28.9967 26.2323C29.2197 26.2323 29.4389 26.1548 29.6176 26.0082C29.8592 25.8099 30 25.5073 30 25.1871V3.36645C30 2.88351 29.6823 2.4635 29.2316 2.35039ZM15.3492 20.8641C15.3251 20.8641 15.301 20.8656 15.277 20.8662L14.7497 19.7651C15.9376 18.9023 16.8254 17.6709 17.2931 16.2142C17.8684 14.4228 17.7395 12.5052 16.9301 10.8147C15.8349 8.52753 13.6886 7.06137 11.2625 6.91133V4.19438L18.7375 2.36428V22.0379L17.5889 22.319C17.1627 21.435 16.2845 20.8641 15.3492 20.8641ZM10.8499 8.98795C12.6776 8.98795 14.3193 10.0455 15.1343 11.7476C15.7045 12.9384 15.7955 14.2894 15.3901 15.5513C14.9848 16.8133 14.1321 17.8354 12.9889 18.4293C12.3182 18.7776 11.6016 18.9544 10.8588 18.9544C9.03101 18.9544 7.38949 17.8969 6.57444 16.1947C5.39737 13.7365 6.3598 10.7389 8.7198 9.51297C9.3904 9.1645 10.1071 8.98795 10.8499 8.98795ZM11.2625 21.032C11.8407 20.9966 12.4052 20.8823 12.9528 20.6958L13.4808 21.7984C13.1225 22.2642 12.9305 22.8531 12.939 23.4576L11.2624 23.8679L11.2625 21.032ZM2.00667 22.0424V2.37175L9.25586 4.18964V7.0964C8.76525 7.22077 8.28657 7.40215 7.82424 7.64236C4.47404 9.38282 3.10788 13.6378 4.77869 17.1274C5.6905 19.032 7.33151 20.3671 9.25586 20.8474V23.8603L2.00667 22.0424ZM17.5081 27.8678C17.4542 27.8957 17.3959 27.9098 17.3346 27.9098C17.1514 27.9098 16.9759 27.7906 16.8876 27.6061L15.0031 23.6702C14.8818 23.4167 14.9608 23.1085 15.1756 22.9966C15.2293 22.9688 15.288 22.9544 15.3492 22.9544C15.5324 22.9544 15.708 23.0736 15.7963 23.2582L17.6807 27.194C17.8021 27.4475 17.723 27.756 17.5081 27.8678ZM27.9933 23.8605L20.7441 22.0425V2.37175L27.9933 4.18964V23.8605Z" fill="white"/>
</svg>
