<svg width="30" height="22" viewBox="0 0 30 22" fill="none" xmlns="http://www.w3.org/2000/svg">
<path d="M27.6562 0H2.34375C1.72215 0 1.12601 0.263392 0.686468 0.732233C0.24693 1.20107 0 1.83696 0 2.5L0 19.5C0 20.163 0.24693 20.7989 0.686468 21.2678C1.12601 21.7366 1.72215 22 2.34375 22H27.6562C28.2779 22 28.874 21.7366 29.3135 21.2678C29.7531 20.7989 30 20.163 30 19.5V2.5C30 1.83696 29.7531 1.20107 29.3135 0.732233C28.874 0.263392 28.2779 0 27.6562 0ZM2.34375 2.5H6.09375C6.06768 2.99422 5.9494 3.47792 5.74584 3.92276C5.54228 4.36759 5.25754 4.76463 4.90829 5.09059C4.55905 5.41655 4.15233 5.66488 3.71196 5.82104C3.2716 5.9772 2.80644 6.03804 2.34375 6V2.5ZM2.34375 19.5V16C2.80644 15.962 3.2716 16.0228 3.71196 16.179C4.15233 16.3351 4.55905 16.5835 4.90829 16.9094C5.25754 17.2354 5.54228 17.6324 5.74584 18.0772C5.9494 18.5221 6.06768 19.0058 6.09375 19.5H2.34375ZM27.6562 19.5H24C24.0533 18.5201 24.4675 17.6023 25.1523 16.9468C25.8372 16.2912 26.7372 15.9509 27.6562 16V19.5ZM27.6562 13.5C26.8928 13.4733 26.132 13.6074 25.4172 13.8945C24.7024 14.1817 24.0476 14.6163 23.4904 15.1735C22.9332 15.7308 22.4844 16.3997 22.1697 17.1421C21.8549 17.8844 21.6805 18.6857 21.6562 19.5H8.34375C8.31952 18.6857 8.14506 17.8844 7.83034 17.1421C7.51562 16.3997 7.06682 15.7308 6.50958 15.1735C5.95235 14.6163 5.29762 14.1817 4.58281 13.8945C3.86801 13.6074 3.10716 13.4733 2.34375 13.5V8.5C3.10716 8.52669 3.86801 8.39263 4.58281 8.10547C5.29762 7.81831 5.95235 7.38369 6.50958 6.82646C7.06682 6.26923 7.51562 5.60031 7.83034 4.85794C8.14506 4.11558 8.31952 3.31433 8.34375 2.5H21.6562C21.6805 3.31433 21.8549 4.11558 22.1697 4.85794C22.4844 5.60031 22.9332 6.26923 23.4904 6.82646C24.0476 7.38369 24.7024 7.81831 25.4172 8.10547C26.132 8.39263 26.8928 8.52669 27.6562 8.5V13.5ZM27.6562 6C26.7372 6.04914 25.8372 5.70884 25.1523 5.05325C24.4675 4.39765 24.0533 3.47991 24 2.5H27.6562V6Z" fill="white"/>
<path d="M15 4.99991C14.2366 4.97322 13.4757 5.10728 12.7609 5.39444C12.0461 5.6816 11.3914 6.11622 10.8342 6.67345C10.2769 7.23068 9.82813 7.8996 9.51341 8.64197C9.19869 9.38433 9.02423 10.1856 9 10.9999C9.02423 11.8142 9.19869 12.6155 9.51341 13.3579C9.82813 14.1002 10.2769 14.7691 10.8342 15.3264C11.3914 15.8836 12.0461 16.3182 12.7609 16.6054C13.4757 16.8925 14.2366 17.0266 15 16.9999C15.7634 17.0266 16.5243 16.8925 17.2391 16.6054C17.9539 16.3182 18.6086 15.8836 19.1658 15.3264C19.7231 14.7691 20.1719 14.1002 20.4866 13.3579C20.8013 12.6155 20.9758 11.8142 21 10.9999C20.9758 10.1856 20.8013 9.38433 20.4866 8.64197C20.1719 7.8996 19.7231 7.23068 19.1658 6.67345C18.6086 6.11622 17.9539 5.6816 17.2391 5.39444C16.5243 5.10728 15.7634 4.97322 15 4.99991ZM15 14.4999C14.0809 14.5491 13.1809 14.2087 12.4961 13.5532C11.8112 12.8976 11.397 11.9798 11.3438 10.9999C11.397 10.02 11.8112 9.10226 12.4961 8.44666C13.1809 7.79107 14.0809 7.45077 15 7.49991C15.4627 7.46187 15.9278 7.52271 16.3682 7.67887C16.8086 7.83503 17.2153 8.08336 17.5645 8.40932C17.9138 8.73529 18.1985 9.13232 18.4021 9.57715C18.6056 10.022 18.7239 10.5057 18.75 10.9999C18.7239 11.4941 18.6056 11.9778 18.4021 12.4227C18.1985 12.8675 17.9138 13.2645 17.5645 13.5905C17.2153 13.9165 16.8086 14.1648 16.3682 14.3209C15.9278 14.4771 15.4627 14.538 15 14.4999Z" fill="white"/>
</svg>
