<svg width="10" height="10" viewBox="0 0 10 10" fill="none" xmlns="http://www.w3.org/2000/svg">
<path d="M2.21004 4.37227C2.95671 5.83967 4.15967 7.03745 5.62708 7.7893L6.76782 6.64856C6.90782 6.50856 7.11523 6.4619 7.29671 6.52412C7.87745 6.71597 8.50486 6.81967 9.14782 6.81967C9.43301 6.81967 9.66634 7.05301 9.66634 7.33819V9.14782C9.66634 9.43301 9.43301 9.66634 9.14782 9.66634C4.27893 9.66634 0.333008 5.72042 0.333008 0.851526C0.333008 0.566341 0.566341 0.333008 0.851526 0.333008H2.66634C2.95153 0.333008 3.18486 0.566341 3.18486 0.851526C3.18486 1.49967 3.28856 2.1219 3.48042 2.70264C3.53745 2.88412 3.49597 3.08634 3.35079 3.23153L2.21004 4.37227Z" fill="white"/>
</svg>
